<svg width="34" height="29" viewBox="0 0 34 29" fill="none" xmlns="http://www.w3.org/2000/svg">
<g filter="url(#filter0_ii_127_1109)">
<path d="M4.67049 7.30326C9.16615 -2.43442 24.8339 -2.43443 29.3295 7.30326C29.7901 8.3008 30.4047 9.23772 31.1561 10.0875C38.4911 18.3825 30.6572 30.3232 18.8266 28.8806C17.6147 28.7328 16.3854 28.7328 15.1734 28.8806C3.3428 30.3232 -4.49107 18.3825 2.84392 10.0875C3.59533 9.23772 4.20996 8.3008 4.67049 7.30326Z" fill="url(#paint0_linear_127_1109)"/>
</g>
<g filter="url(#filter1_ii_127_1109)">
<path d="M12.2822 11.6953C13.1092 11.6955 13.7791 12.4942 13.7793 13.4795C13.7793 14.465 13.1093 15.2645 12.2822 15.2646C11.455 15.2646 10.7842 14.4651 10.7842 13.4795C10.7844 12.4941 11.4551 11.6953 12.2822 11.6953ZM19.0215 11.6953C19.8486 11.6953 20.5193 12.4941 20.5195 13.4795C20.5195 14.4651 19.8487 15.2646 19.0215 15.2646C18.1945 15.2644 17.5244 14.4649 17.5244 13.4795C17.5246 12.4943 18.1946 11.6956 19.0215 11.6953Z" fill="black"/>
</g>
<ellipse cx="13.1059" cy="13.5544" rx="0.374449" ry="0.371795" fill="white"/>
<g filter="url(#filter2_i_127_1109)">
<ellipse cx="19.9965" cy="13.5544" rx="0.374449" ry="0.371795" fill="white"/>
</g>
<defs>
<filter id="filter0_ii_127_1109" x="-3.41538" y="-3.41538" width="40.8308" height="35.8308" filterUnits="userSpaceOnUse" color-interpolation-filters="sRGB">
<feFlood flood-opacity="0" result="BackgroundImageFix"/>
<feBlend mode="normal" in="SourceGraphic" in2="BackgroundImageFix" result="shape"/>
<feColorMatrix in="SourceAlpha" type="matrix" values="0 0 0 0 0 0 0 0 0 0 0 0 0 0 0 0 0 0 127 0" result="hardAlpha"/>
<feOffset dx="-3.41538" dy="-3.41538"/>
<feGaussianBlur stdDeviation="1.70769"/>
<feComposite in2="hardAlpha" operator="arithmetic" k2="-1" k3="1"/>
<feColorMatrix type="matrix" values="0 0 0 0 1 0 0 0 0 0.770724 0 0 0 0 0.541448 0 0 0 0.25 0"/>
<feBlend mode="normal" in2="shape" result="effect1_innerShadow_127_1109"/>
<feColorMatrix in="SourceAlpha" type="matrix" values="0 0 0 0 0 0 0 0 0 0 0 0 0 0 0 0 0 0 127 0" result="hardAlpha"/>
<feOffset dx="3.41538" dy="3.41538"/>
<feGaussianBlur stdDeviation="1.70769"/>
<feComposite in2="hardAlpha" operator="arithmetic" k2="-1" k3="1"/>
<feColorMatrix type="matrix" values="0 0 0 0 1 0 0 0 0 1 0 0 0 0 1 0 0 0 0.25 0"/>
<feBlend mode="normal" in2="effect1_innerShadow_127_1109" result="effect2_innerShadow_127_1109"/>
</filter>
<filter id="filter1_ii_127_1109" x="8.50726" y="9.41839" width="14.2892" height="8.12318" filterUnits="userSpaceOnUse" color-interpolation-filters="sRGB">
<feFlood flood-opacity="0" result="BackgroundImageFix"/>
<feBlend mode="normal" in="SourceGraphic" in2="BackgroundImageFix" result="shape"/>
<feColorMatrix in="SourceAlpha" type="matrix" values="0 0 0 0 0 0 0 0 0 0 0 0 0 0 0 0 0 0 127 0" result="hardAlpha"/>
<feOffset dx="2.27692" dy="2.27692"/>
<feGaussianBlur stdDeviation="1.13846"/>
<feComposite in2="hardAlpha" operator="arithmetic" k2="-1" k3="1"/>
<feColorMatrix type="matrix" values="0 0 0 0 1 0 0 0 0 0.679776 0 0 0 0 0.542537 0 0 0 0.25 0"/>
<feBlend mode="normal" in2="shape" result="effect1_innerShadow_127_1109"/>
<feColorMatrix in="SourceAlpha" type="matrix" values="0 0 0 0 0 0 0 0 0 0 0 0 0 0 0 0 0 0 127 0" result="hardAlpha"/>
<feOffset dx="-2.27692" dy="-2.27692"/>
<feGaussianBlur stdDeviation="1.13846"/>
<feComposite in2="hardAlpha" operator="arithmetic" k2="-1" k3="1"/>
<feColorMatrix type="matrix" values="0 0 0 0 0.486591 0 0 0 0 0.486591 0 0 0 0 0.486591 0 0 0 0.25 0"/>
<feBlend mode="normal" in2="effect1_innerShadow_127_1109" result="effect2_innerShadow_127_1109"/>
</filter>
<filter id="filter2_i_127_1109" x="19.6221" y="13.1826" width="1.31825" height="1.31288" filterUnits="userSpaceOnUse" color-interpolation-filters="sRGB">
<feFlood flood-opacity="0" result="BackgroundImageFix"/>
<feBlend mode="normal" in="SourceGraphic" in2="BackgroundImageFix" result="shape"/>
<feColorMatrix in="SourceAlpha" type="matrix" values="0 0 0 0 0 0 0 0 0 0 0 0 0 0 0 0 0 0 127 0" result="hardAlpha"/>
<feOffset dx="0.569231" dy="0.569231"/>
<feGaussianBlur stdDeviation="0.569231"/>
<feComposite in2="hardAlpha" operator="arithmetic" k2="-1" k3="1"/>
<feColorMatrix type="matrix" values="0 0 0 0 0 0 0 0 0 0 0 0 0 0 0 0 0 0 0.25 0"/>
<feBlend mode="normal" in2="shape" result="effect1_innerShadow_127_1109"/>
</filter>
<linearGradient id="paint0_linear_127_1109" x1="-4.47057" y1="-8.67172" x2="31.6488" y2="33.4813" gradientUnits="userSpaceOnUse">
<stop stop-color="white"/>
<stop offset="1" stop-color="#F65A00"/>
</linearGradient>
</defs>
</svg>
